<svg width="800" height="800" viewBox="0 0 800 800" fill="none" xmlns="http://www.w3.org/2000/svg">
<path d="M457.473 579.248L276.828 734.031L248.906 757.956L233.084 739.489C220.216 724.47 197.609 722.727 182.591 735.595L170.731 745.756L123.555 690.697L135.414 680.536C150.433 667.667 152.177 645.061 139.308 630.042C126.439 615.023 103.833 613.28 88.8141 626.148L76.9547 636.309L29.775 581.25L51.425 564.081L331.033 223.972L515.269 66.1156L543.363 42.0438L559.184 60.511C572.053 75.5297 594.659 77.2735 609.678 64.4047L621.538 54.2438L668.714 109.303L656.855 119.464C641.836 132.333 640.092 154.939 652.961 169.958C665.83 184.977 688.436 186.72 703.455 173.852L715.314 163.691L762.492 218.75L740.844 238.581L457.473 579.248Z" fill="#D7D5D9"/>
<path d="M539.117 576.028H88.4234H51.4281V551.711C51.4281 531.934 35.3969 515.9 15.6172 515.9H0V443.394H15.6172C35.3937 443.394 51.4281 427.363 51.4281 407.583C51.4281 387.806 35.3969 371.772 15.6172 371.772H0V299.266H15.6172C35.3937 299.266 51.4281 283.234 51.4281 263.455V223.97H88.4234H201.436H292.066H703.845H740.841V248.288C740.841 268.064 756.872 284.098 776.652 284.098H792.269V356.605H776.652C756.875 356.605 740.841 372.636 740.841 392.416C740.841 412.192 756.872 428.227 776.652 428.227H792.269V500.733H776.652C756.875 500.733 740.841 516.764 740.841 536.544V576.028H703.845H645.191H539.117Z" fill="#8C8A93"/>
<path d="M325.983 280.63H670.247V519.37H122.023V280.63H233.617H325.983Z" fill="#1D55CD"/>
<g opacity="0.19">
<path d="M784.383 356.608H800V284.102H784.383C764.606 284.102 748.572 268.07 748.572 248.291V223.973H711.578H657.103C565.998 501.248 387.898 512.091 286.155 576.027H546.85H652.923H711.578H748.573V536.544C748.573 516.767 764.605 500.733 784.384 500.733H800V428.227H784.383C764.606 428.227 748.572 412.195 748.572 392.416C748.572 372.639 764.606 356.608 784.383 356.608Z" fill="#3E3B43"/>
</g>
</svg>
